<svg width="50" height="50" viewBox="0 0 164 130" fill="none" xmlns="http://www.w3.org/2000/svg">
    <path d="M64.4668 0.03125H81.4297V68.5V90.6465C81.4297 102.893 77.7383 112.473 70.3555 119.387C63.0312 126.301 53.2461 129.758 41 129.758C28.2852 129.758 18.3828 126.506 11.293 120.002C4.20312 113.498 0.658203 104.387 0.658203 92.668H17.5332C17.5332 99.9922 19.5254 105.705 23.5098 109.807C27.5527 113.908 33.3828 115.959 41 115.959C47.9727 115.959 53.5977 113.762 57.875 109.367C62.2109 104.973 64.4082 86.9102 64.4668 79V0.03125Z" fill="#ccd5dd"/>
    <rect x="90" y="65" width="74" height="55" fill="#ccd5dd"/>
    <circle cx="111.5" cy="58.5" r="15.5" fill="#ccd5dd"/>
    <path d="M147 34L138.391 65L114 45.625L147 34Z" fill="#ccd5dd"/>
    <rect x="137" y="55" width="21" height="21" fill="#ccd5dd"/>
</svg>
